<?xml version="1.0" standalone="no"?>
<!DOCTYPE svg PUBLIC "-//W3C//DTD SVG 20010904//EN"
 "http://www.w3.org/TR/2001/REC-SVG-20010904/DTD/svg10.dtd">
<svg version="1.0" xmlns="http://www.w3.org/2000/svg"
 width="100.000000pt" height="100.000000pt" viewBox="0 0 100.000000 100.000000"
 preserveAspectRatio="xMidYMid meet">

<g transform="translate(0.000000,100.000000) scale(0.100000,-0.100000)"
fill="#000000" stroke="none">
<path d="M282 960 c-212 -106 -325 -350 -267 -575 59 -225 264 -385 495 -385
192 0 373 113 455 284 39 81 42 98 21 115 -12 10 -26 4 -73 -27 -222 -152
-517 -51 -595 202 -37 121 -15 242 63 351 27 37 30 47 19 60 -18 22 -29 19
-118 -25z"/>
<path d="M852 948 c-7 -7 -12 -20 -12 -30 0 -11 -7 -18 -19 -18 -44 0 -53 -55
-10 -62 15 -2 25 -12 29 -28 9 -37 54 -35 58 3 3 21 9 27 28 27 14 0 27 7 30
15 8 20 -13 45 -37 45 -12 0 -19 7 -19 18 0 17 -18 42 -30 42 -3 0 -11 -5 -18
-12z"/>
<path d="M608 766 c-8 -8 -20 -27 -27 -43 -8 -19 -28 -37 -56 -51 -60 -29 -60
-55 -1 -83 32 -16 49 -33 65 -65 11 -24 27 -44 35 -44 16 0 52 41 61 69 3 10
23 26 45 36 64 29 61 58 -7 94 -19 9 -44 35 -56 56 -25 44 -39 52 -59 31z"/>
</g>
</svg>
