<?xml version="1.0" standalone="no"?>
<!DOCTYPE svg PUBLIC "-//W3C//DTD SVG 20010904//EN"
 "http://www.w3.org/TR/2001/REC-SVG-20010904/DTD/svg10.dtd">
<svg version="1.0" xmlns="http://www.w3.org/2000/svg"
 width="100.000000pt" height="100.000000pt" viewBox="0 0 100.000000 100.000000"
 preserveAspectRatio="xMidYMid meet">

<g transform="translate(0.000000,100.000000) scale(0.100000,-0.100000)"
fill="#000000" stroke="none">
<path d="M446 924 c-20 -42 -36 -77 -36 -78 0 0 41 -1 90 -1 50 0 90 1 90 1 0
1 -16 36 -36 78 -25 53 -42 76 -54 76 -12 0 -29 -23 -54 -76z"/>
<path d="M143 845 c-3 -9 7 -50 22 -92 l28 -76 31 36 c17 20 46 49 65 65 l34
28 -72 27 c-83 31 -99 33 -108 12z"/>
<path d="M746 833 l-69 -26 36 -31 c20 -17 49 -46 65 -65 l29 -35 28 77 c42
115 30 125 -89 80z"/>
<path d="M393 769 c-70 -27 -136 -94 -162 -164 -109 -292 254 -528 473 -309
220 220 -20 585 -311 473z"/>
<path d="M73 553 c-96 -46 -96 -60 3 -107 42 -20 77 -36 78 -36 0 0 1 41 1 90
0 50 -2 90 -5 89 -3 0 -38 -16 -77 -36z"/>
<path d="M845 500 c0 -49 1 -90 1 -90 1 0 36 16 78 36 53 25 76 42 76 54 0 12
-23 29 -76 54 -42 20 -77 36 -78 36 0 0 -1 -40 -1 -90z"/>
<path d="M167 251 c-15 -40 -27 -79 -27 -87 0 -27 30 -27 107 1 l77 28 -35 29
c-19 16 -48 45 -65 65 l-30 36 -27 -72z"/>
<path d="M743 255 l-62 -63 74 -27 c75 -28 105 -28 105 -1 0 13 -47 147 -53
152 -1 1 -30 -27 -64 -61z"/>
<path d="M410 154 c0 -1 16 -36 36 -78 25 -53 42 -76 54 -76 12 0 29 23 54 76
20 42 36 77 36 78 0 0 -40 1 -90 1 -49 0 -90 -1 -90 -1z"/>
</g>
</svg>
